<svg xmlns="http://www.w3.org/2000/svg" viewBox="2630.45 -4387.943 15.698 17.125">
  <defs>
    <style>
      .cls-1 {
        fill: #ff5f5f;
      }
    </style>
  </defs>
  <path id="_1493148507_trash-o" data-name="1493148507_trash-o" class="cls-1" d="M197.708,134.779V141.2a.344.344,0,0,1-.357.357h-.714a.344.344,0,0,1-.357-.357v-6.422a.344.344,0,0,1,.357-.357h.714a.344.344,0,0,1,.357.357Zm2.854,0V141.2a.344.344,0,0,1-.357.357h-.714a.344.344,0,0,1-.357-.357v-6.422a.344.344,0,0,1,.357-.357h.714a.344.344,0,0,1,.357.357Zm2.854,0V141.2a.343.343,0,0,1-.357.357h-.714a.344.344,0,0,1-.357-.357v-6.422a.344.344,0,0,1,.357-.357h.714a.343.343,0,0,1,.357.357Zm1.427,8.072v-10.57h-9.99v10.57a1.266,1.266,0,0,0,.078.452,1,1,0,0,0,.162.3q.084.095.117.095h9.276q.033,0,.117-.095a1,1,0,0,0,.162-.3A1.266,1.266,0,0,0,204.844,142.851Zm-7.492-12h4.995l-.535-1.3a.315.315,0,0,0-.19-.123h-3.534a.315.315,0,0,0-.19.123Zm10.347.357v.714a.343.343,0,0,1-.357.357h-1.07v10.57a2.531,2.531,0,0,1-.524,1.6,1.554,1.554,0,0,1-1.26.675h-9.276a1.57,1.57,0,0,1-1.26-.652,2.44,2.44,0,0,1-.524-1.578V132.281h-1.07a.344.344,0,0,1-.357-.357v-.714a.344.344,0,0,1,.357-.357H195.8l.78-1.862a1.545,1.545,0,0,1,.6-.7,1.574,1.574,0,0,1,.881-.29h3.568a1.574,1.574,0,0,1,.881.29,1.545,1.545,0,0,1,.6.7l.78,1.862h3.445a.343.343,0,0,1,.357.357Z" transform="translate(2438.45 -4515.943)"/>
</svg>
