<svg xmlns="http://www.w3.org/2000/svg" viewBox="4078.9 -4998.853 336.504 55.335">
  <defs>
    <style>
      .cls-1 {
        fill: #fff;
      }
    </style>
  </defs>
  <g id="Group_246" data-name="Group 246" transform="translate(4035 -5028)">
    <path id="Path_145" data-name="Path 145" class="cls-1" d="M69.367,72.591c-8.091.46-20.135-2.023-20.135-9.47,0-6.62,6.436-12.136,14.526-15.17l.736-3.4C53.921,47.584,43.9,55.307,43.9,63.949,43.9,74.062,59.622,75.9,69,74.706Zm3.31-42.568c-1.011-1.379-2.758-1.011-2.942.276L63.483,59.72a.517.517,0,0,0,.552.644H68.54c.46,0,.644-.184.736-.644l3.861-17.652L86.928,62.11a1.3,1.3,0,0,0,2.3-.736l6.16-29.789c.092-.46-.092-.644-.644-.644H90.33c-.736,0-.827.184-1.011.919L85.733,48.779Zm39.9,14.618c1.011.919,1.379,2.207,1.379,4.321,0,7.171-6.987,12.412-14.986,15.446l-.736,3.31C108.81,64.684,119.475,56.5,119.475,47.86a5.563,5.563,0,0,0-.827-3.218ZM99.156,35.448c-.552,0-.919,0-.919.827V40.78c0,.827.368,1.1.919,1.1h3.678v3.586c0,.552.184,1.011,1.011,1.011h4.505c.827,0,.827-.46.827-1.011V41.883h3.953c.552,0,.644-.184.644-1.1V36.275c0-.827-.092-.827-.644-.827h-3.861V31.494c0-.552,0-1.563-.827-1.563h-4.505c-.827,0-1.011,1.011-1.011,1.563v3.953Zm12.872,1.839v2.758h-4.6v4.6h-2.758v-4.6h-4.6V37.286h4.6v-4.6h2.758v4.6ZM76.355,51.445c-1.011-1.379-2.758-1.011-2.942.276L67.161,81.05c-.092.368.184.46.552.46h4.505c.46,0,.644,0,.736-.46L76.814,63.4,90.881,83.992a1.3,1.3,0,0,0,2.3-.644l6.16-30.156c.092-.46-.092-1.011-.644-1.011H94.283c-.736,0-.827.552-1.011,1.287L89.594,70.385Z" transform="translate(0 0)"/>
    <path id="Path_146" data-name="Path 146" class="cls-1" d="M147.665,51.1l5.516-7.723a.993.993,0,0,1,.644-.276h3.31c.184,0,.276.276.184.46L150.883,52.2l7.263,9.47a.352.352,0,0,1-.184.552h-3.586a1.168,1.168,0,0,1-.644-.368l-5.884-7.723H146.47v7.723a.4.4,0,0,1-.368.368H143.16a.421.421,0,0,1-.46-.368V43.468a.421.421,0,0,1,.46-.368H146.1a.4.4,0,0,1,.368.368V51.1ZM165.5,54.041c0,2.666-.368,4.689-1.287,6.16a4.715,4.715,0,0,1-3.494,2.207c-.184,0-.552,0-.644-.368l-.644-2.3c-.092-.184.092-.552.368-.644a2,2,0,0,0,.919-.368c1.563-.919,1.379-2.85,1.379-4.413v-5.7a.421.421,0,0,1,.46-.368h9.562a.4.4,0,0,1,.368.368V61.58a.4.4,0,0,1-.368.368h-2.666a.421.421,0,0,1-.46-.368V51.375h-3.586v2.666Zm19.583-.184-5.332,8a.716.716,0,0,1-.644.276h-2.3a.4.4,0,0,1-.368-.368V48.8a.4.4,0,0,1,.368-.368h2.666a.421.421,0,0,1,.46.368v7.723l5.241-7.815a.716.716,0,0,1,.644-.276h2.391a.4.4,0,0,1,.368.368V61.764a.4.4,0,0,1-.368.368h-2.758a.4.4,0,0,1-.368-.368V53.857Zm16.181,8.275a.4.4,0,0,1-.368-.368V56.707h-5.057v5.057a.4.4,0,0,1-.368.368h-2.666a.421.421,0,0,1-.46-.368V48.8a.421.421,0,0,1,.46-.368h2.666a.4.4,0,0,1,.368.368v4.873H200.9V48.8a.4.4,0,0,1,.368-.368h2.666a.421.421,0,0,1,.46.368V61.764a.421.421,0,0,1-.46.368h-2.666Zm23.169,0a.4.4,0,0,1-.368-.368V48.8a.421.421,0,0,1,.368-.46H227.1a.434.434,0,0,1,.46.46v4.781h1.471l3.31-4.873a.621.621,0,0,1,.552-.368h3.126c.368,0,.46.276.276.552L231.79,54.96l4.873,6.62a.352.352,0,0,1-.184.552h-3.494a.621.621,0,0,1-.552-.368l-3.586-5.241H227.56v5.241a.421.421,0,0,1-.46.368Zm22.433-1.1a6.652,6.652,0,0,1-3.77,1.287c-2.85,0-4.781-1.747-4.781-4.321,0-2.758,2.574-3.861,4.965-3.861h3.586V53.4c0-1.471-1.1-1.931-2.482-1.931a5.8,5.8,0,0,0-3.31.919c-.092.092-.368.368-.644,0l-1.1-1.931a.442.442,0,0,1,.184-.552,8.788,8.788,0,0,1,5.241-1.563c3.678,0,5.7,1.379,5.7,4.965v8.55a.4.4,0,0,1-.368.368H247.6a.425.425,0,0,1-.46-.276Zm0-4.505h-3.31a1.282,1.282,0,0,0-1.379,1.287c0,.919.644,1.379,1.563,1.379a5.219,5.219,0,0,0,3.126-.919V56.523Zm24.916,5.608a.4.4,0,0,1-.368-.368V54.133h-7.079v7.631a.421.421,0,0,1-.46.368h-2.942a.4.4,0,0,1-.368-.368v-18.3a.4.4,0,0,1,.368-.368h2.942a.421.421,0,0,1,.46.368v7.355h7.079V43.468a.4.4,0,0,1,.368-.368h3.034a.4.4,0,0,1,.368.368v18.3a.4.4,0,0,1-.368.368h-3.034Zm9.286,5.516c-.276,0-.46-.276-.368-.46l1.839-5.057h-.46c-.184,0-.276-.276-.276-.46l-3.678-12.78c-.092-.184,0-.46.368-.46h2.85c.184,0,.46.184.46.368l2.39,9.562,3.126-9.562a.621.621,0,0,1,.552-.368h2.85c.276,0,.46.184.368.46L284.379,67.28a.621.621,0,0,1-.552.368ZM305.8,56.615c0,3.494-1.379,5.7-4.873,5.7a7.005,7.005,0,0,1-3.678-.827v5.7a.4.4,0,0,1-.368.368h-2.666c-.184,0-.46-.184-.46-.368V48.8a.421.421,0,0,1,.46-.368h2.39a.421.421,0,0,1,.46.368l.184.827a8.87,8.87,0,0,1,3.953-1.379c3.31,0,4.6,2.023,4.6,5.057v3.31Zm-3.586-2.758c0-1.655-.552-2.3-1.747-2.3a5.231,5.231,0,0,0-3.126,1.2v5.333a5.56,5.56,0,0,0,3.034.827c1.379,0,1.931-.827,1.931-2.115V53.857ZM328.6,56.339v.46a2.3,2.3,0,0,0,2.482,2.3,4.765,4.765,0,0,0,3.034-.919c.184-.184.276-.276.46,0l1.471,1.839a.346.346,0,0,1-.092.552,6.583,6.583,0,0,1-4.873,1.655c-3.126,0-6.068-1.747-6.068-5.057V54.041c0-3.953,2.666-5.792,5.884-5.792,3.4,0,5.884,2.023,5.884,5.333v2.3a.4.4,0,0,1-.368.368H328.6Zm4.689-2.666a2.224,2.224,0,0,0-2.39-2.207,2.374,2.374,0,0,0-2.39,2.39v.184H333.2v-.368Zm18.664,4.505c0,2.666-2.023,3.953-4.6,3.953h-6.8a.4.4,0,0,1-.368-.368V48.8a.4.4,0,0,1,.368-.368h5.884q4.689.138,4.689,3.861a3.574,3.574,0,0,1-1.379,2.85,3.109,3.109,0,0,1,2.207,3.034Zm-4.229-5.608a1.279,1.279,0,0,0-1.379-1.287H343.68v2.574h2.574a1.312,1.312,0,0,0,1.471-1.287Zm.644,5.424c0-.919-.827-1.287-1.655-1.287h-2.942v2.574h2.942c.919,0,1.655-.368,1.655-1.287Zm7.447,4.137a.4.4,0,0,1-.368-.368V48.8a.4.4,0,0,1,.368-.368h2.666a.4.4,0,0,1,.368.368v4.6h2.85c2.758,0,5.057,1.2,5.057,4.137,0,3.034-2.023,4.6-4.873,4.6Zm3.126-2.942h2.942a1.512,1.512,0,0,0,1.471-1.471c0-1.1-.827-1.471-1.655-1.471h-2.758Zm9.378,2.942a.4.4,0,0,1-.368-.368V48.8a.4.4,0,0,1,.368-.368h2.666a.421.421,0,0,1,.46.368V61.764a.421.421,0,0,1-.46.368H368.32Zm16.273,0a1.168,1.168,0,0,1-.644-.368L381.1,57.81l-2.666,3.953a.931.931,0,0,1-.644.368h-3.4c-.184,0-.276-.184-.184-.276l4.873-6.62-4.6-6.436c-.184-.184-.092-.276.184-.276h3.4a.931.931,0,0,1,.644.368l2.482,3.678,2.666-3.678a.93.93,0,0,1,.643-.368h3.4c.184,0,.276.184.184.276L383.4,55.236l4.873,6.712c.184.184.092.276-.184.276h-3.494ZM216.712,53.857l-5.333,8a.716.716,0,0,1-.644.276h-2.3a.4.4,0,0,1-.368-.368V48.8a.4.4,0,0,1,.368-.368H211.1a.421.421,0,0,1,.46.368v7.723l5.241-7.815a.716.716,0,0,1,.644-.276h2.39a.4.4,0,0,1,.368.368V61.764a.4.4,0,0,1-.368.368h-2.758a.4.4,0,0,1-.368-.368V53.857Zm101.134,0-5.333,8a.716.716,0,0,1-.644.276h-2.3a.4.4,0,0,1-.368-.368V48.8a.4.4,0,0,1,.368-.368h2.666a.421.421,0,0,1,.46.368v7.723l5.241-7.815a.716.716,0,0,1,.644-.276h2.39a.4.4,0,0,1,.368.368V61.764a.4.4,0,0,1-.368.368h-2.758a.4.4,0,0,1-.368-.368V53.857Z" transform="translate(-7.963 -1.125)"/>
  </g>
</svg>
