<svg xmlns="http://www.w3.org/2000/svg" viewBox="4078.9 -5060.853 49.77 36.441">
  <defs>
    <style>
      .cls-1 {
        fill: #009685;
      }
    </style>
  </defs>
  <path id="Path_148" data-name="Path 148" class="cls-1" d="M60.672,57.757c-5.328.3-13.26-1.332-13.26-6.236,0-4.359,4.238-7.992,9.566-9.99l.484-2.24C50.5,41.289,43.9,46.375,43.9,52.066c0,6.66,10.354,7.871,16.529,7.084Zm2.18-28.033c-.666-.908-1.816-.666-1.938.182L56.8,49.281a.341.341,0,0,0,.363.424h2.967c.3,0,.424-.121.484-.424l2.543-11.625,9.082,13.2a.854.854,0,0,0,1.514-.484l4.057-19.617c.061-.3-.061-.424-.424-.424H74.476c-.484,0-.545.121-.666.605L71.449,42.076Zm26.278,9.627a3.509,3.509,0,0,1,.908,2.846c0,4.723-4.6,8.174-9.869,10.172l-.484,2.18c6.963-2,13.986-7.387,13.986-13.078a3.663,3.663,0,0,0-.545-2.119ZM80.289,33.3c-.363,0-.605,0-.605.545v2.967c0,.545.242.727.605.727h2.422V39.9c0,.363.121.666.666.666h2.967c.545,0,.545-.3.545-.666V37.535h2.6c.363,0,.424-.121.424-.727V33.841c0-.545-.061-.545-.424-.545H86.949v-2.6c0-.363,0-1.029-.545-1.029H83.437c-.545,0-.666.666-.666,1.029v2.6Zm8.477,1.211v1.816H85.738v3.027H83.922V36.324H80.894V34.507h3.027V31.48h1.816v3.027ZM65.273,43.832c-.666-.908-1.816-.666-1.938.182L59.218,63.328c-.061.242.121.3.363.3h2.967c.3,0,.424,0,.484-.3L65.576,51.7,74.84,65.265a.854.854,0,0,0,1.514-.424l4.057-19.86c.061-.3-.061-.666-.424-.666H77.08c-.484,0-.545.363-.666.848L73.992,56.3Z" transform="translate(4035 -5090)"/>
</svg>
