<?xml version="1.0" encoding="UTF-8"?>
<svg width="41px" height="41px" viewBox="0 0 41 41" version="1.1" xmlns="http://www.w3.org/2000/svg" xmlns:xlink="http://www.w3.org/1999/xlink">
    <!-- Generator: Sketch 43.1 (39012) - http://www.bohemiancoding.com/sketch -->
    <title>_1491492503_phone</title>
    <desc>Created with Sketch.</desc>
    <defs></defs>
    <g id="Page-1" stroke="none" stroke-width="1" fill="none" fill-rule="evenodd" opacity="0.492">
        <g id="_1491492503_phone" stroke-width="2" stroke="#FFFFFF">
            <g id="Icons-Communication">
                <g id="phone">
                    <path d="M8.769,17.834 C11.9484902,23.9270287 16.9199713,28.8985098 23.013,32.078 L27.761,27.33 C28.2822453,26.6838489 29.1909668,26.5028622 29.92,26.9 C32.4137756,27.7835762 35.0434566,28.2219128 37.689,28.195 C38.2713923,28.1598915 38.8409244,28.3759532 39.2534856,28.7885144 C39.6660468,29.2010756 39.8821085,29.7706077 39.847,30.353 L39.847,37.691 C39.8821085,38.2733923 39.6660468,38.8429244 39.2534856,39.2554856 C38.8409244,39.6680468 38.2713923,39.8841085 37.689,39.849 C27.9556034,39.857235 18.6185239,35.9941678 11.7361583,29.111427 C4.85379263,22.2286862 0.991234385,12.8913962 1,3.158 C0.96489148,2.57560768 1.18095324,2.00607557 1.5935144,1.5935144 C2.00607557,1.18095324 2.57560768,0.96489148 3.158,1 L10.712,1 C11.2943923,0.96489148 11.8639244,1.18095324 12.2764856,1.5935144 C12.6890468,2.00607557 12.9051085,2.57560768 12.87,3.158 C12.8788198,5.80064716 13.3161638,8.42437359 14.165,10.927 C14.3395535,11.6749633 14.1820267,12.4618683 13.733,13.085 L8.769,17.834 Z" id="Shape"></path>
                </g>
            </g>
        </g>
    </g>
</svg>